<svg viewBox="0 0 240 104" class="aracsvg" aria-hidden="true" preserveAspectRatio="xMidYMid meet">
  <defs><clipPath id="ac1po3k"><path d="M26.5,72.9 L26.5,54.9 Q26.5,51.1 31.4,50.4 L73.7,48.2 Q82.8,42.3 89,30.8 Q91.2,28.6 96.5,28.6 Q127.9,26.7 161.3,29.3 Q164.6,30.4 166.9,32.7 L185.4,46.3 L209.7,45.4 Q213.5,46.3 213.5,50 L213.5,72.9 Z"/></clipPath>
  <linearGradient id="ac1po3" x1="0" y1="0" x2="0" y2="1">
    <stop offset="0" stop-color="#ffc41d"/>
    <stop offset="40.9%" stop-color="#D9A318"/>
    <stop offset="1" stop-color="#7a5b0d"/>
  </linearGradient></defs>
  <ellipse cx="120" cy="88.4" rx="82.3" ry="2.6" fill="rgba(0,0,0,.30)"/>
  <path d="M48.8,72.9 A15.8,15.8 0 0 1 80.3,72.9 Z" fill="rgba(0,0,0,.42)"/><path d="M160,72.9 A15.8,15.8 0 0 1 191.5,72.9 Z" fill="rgba(0,0,0,.42)"/>
  <path d="M26.5,72.9 L26.5,54.9 Q26.5,51.1 31.4,50.4 L73.7,48.2 Q82.8,42.3 89,30.8 Q91.2,28.6 96.5,28.6 Q127.9,26.7 161.3,29.3 Q164.6,30.4 166.9,32.7 L185.4,46.3 L209.7,45.4 Q213.5,46.3 213.5,50 L213.5,72.9 Z" fill="url(#ac1po3)"/>
  <g clip-path="url(#ac1po3k)"><path d="M34.9,44.4 L203.2,42.5" stroke="rgba(255,255,255,0.2)" stroke-width="2.6" stroke-linecap="round" fill="none"/><path d="M104.3,31.5 L118.8,31.5 L119.8,46.7 L96.3,46.7 Z" fill="rgba(170,202,226,.40)"/><path d="M123.4,31.5 L144.9,31.5 L145.9,46.7 L122.4,46.7 Z" fill="rgba(170,202,226,.40)"/><path d="M149.6,31.5 L174.3,31.5 L172,46.7 L148.5,46.7 Z" fill="rgba(170,202,226,.40)"/><path d="M121.1,33.5 L120.4,70.6" stroke="rgba(0,0,0,.24)" stroke-width="1"/><path d="M147.2,33.5 L146.5,70.6" stroke="rgba(0,0,0,.24)" stroke-width="1"/><rect x="111.2" y="50.4" width="6" height="1.9" rx="0.9" fill="rgba(255,255,255,.34)"/><rect x="137.3" y="50.4" width="6" height="1.9" rx="0.9" fill="rgba(255,255,255,.34)"/><rect x="163.4" y="50.4" width="6" height="1.9" rx="0.9" fill="rgba(255,255,255,.34)"/><path d="M103.7,45.9 l-4.5,-0.7 l0.6,3 l4.5,0.6 Z" fill="#987211"/><path d="M187.6,47 L184.6,67.2" stroke="rgba(0,0,0,.26)" stroke-width="1"/><path d="M37.7,52.3 L204.1,50.4" stroke="rgba(255,255,255,.17)" stroke-width="1.1" fill="none"/><path d="M26.5,67.2 L213.5,66.5" stroke="rgba(0,0,0,.20)" stroke-width="4.9"/><path d="M210.5,52.6 L199.3,53.5 L199.3,59 L210.5,58.2 Z" fill="#C8392E" opacity=".92"/><g fill="#F7F9EE" opacity="0.95"><path d="M28,50.8 L41.5,53 L36.4,57.8 L28,55.8 Z"/></g></g>
  
  <circle cx="64.5" cy="72.2" r="13.8" fill="#0D1114"/><circle cx="64.5" cy="72.2" r="10.8" fill="#191F23"/><circle cx="64.5" cy="72.2" r="7.7" fill="#6B7780"/><path d="M66.4,72.2 L71.2,72.2" stroke="#96A2AC" stroke-width="2.3" stroke-linecap="round"/><path d="M65.1,73.9 L66.6,78.5" stroke="#96A2AC" stroke-width="2.3" stroke-linecap="round"/><path d="M63,73.3 L59.2,76.1" stroke="#96A2AC" stroke-width="2.3" stroke-linecap="round"/><path d="M63,71.1 L59.2,68.3" stroke="#96A2AC" stroke-width="2.3" stroke-linecap="round"/><path d="M65.1,70.4 L66.6,65.8" stroke="#96A2AC" stroke-width="2.3" stroke-linecap="round"/><circle cx="64.5" cy="72.2" r="1.6" fill="#404A52"/><circle cx="175.8" cy="72.2" r="13.8" fill="#0D1114"/><circle cx="175.8" cy="72.2" r="10.8" fill="#191F23"/><circle cx="175.8" cy="72.2" r="7.7" fill="#6B7780"/><path d="M177.6,72.2 L182.4,72.2" stroke="#96A2AC" stroke-width="2.3" stroke-linecap="round"/><path d="M176.3,73.9 L177.8,78.5" stroke="#96A2AC" stroke-width="2.3" stroke-linecap="round"/><path d="M174.3,73.3 L170.4,76.1" stroke="#96A2AC" stroke-width="2.3" stroke-linecap="round"/><path d="M174.3,71.1 L170.4,68.3" stroke="#96A2AC" stroke-width="2.3" stroke-linecap="round"/><path d="M176.3,70.4 L177.8,65.8" stroke="#96A2AC" stroke-width="2.3" stroke-linecap="round"/><circle cx="175.8" cy="72.2" r="1.6" fill="#404A52"/>
  <path d="M26.5,72.9 L26.5,54.9 Q26.5,51.1 31.4,50.4 L73.7,48.2 Q82.8,42.3 89,30.8 Q91.2,28.6 96.5,28.6 Q127.9,26.7 161.3,29.3 Q164.6,30.4 166.9,32.7 L185.4,46.3 L209.7,45.4 Q213.5,46.3 213.5,50 L213.5,72.9 Z" fill="none" stroke="rgba(0,0,0,.34)" stroke-width="1"/>
</svg>